<svg width="37" height="37" viewBox="0 0 37 37" fill="none" xmlns="http://www.w3.org/2000/svg">
	<path d="M36.6973 18.1118L36.6839 18.103C36.7285 18.0852 36.7598 18.0763 36.7598 18.0763L36.6661 18.0852L17.5231 0.714182C16.8984 0.252847 16.0818 0 15.2385 0H8.77719H4.06508H2.39175C1.07093 0 0 0.865003 0 1.93406V3.54873C0 4.61779 1.07093 5.48723 2.39175 5.48723H4.06508H8.77719H13.9221L36.617 18.0897L36.4831 18.103C34.4974 17.3843 15.832 10.6462 15.5955 10.5619C15.0689 10.3756 14.7119 10.3224 13.7124 10.3046H8.77719H4.06508H2.39175C1.07093 10.3046 0 11.1741 0 12.2431V13.8578C0 14.9268 1.07093 15.7963 2.39175 15.7963H4.21234H8.77719H13.1814C13.6544 15.8007 14.0515 15.8229 14.4487 15.854L36.2556 18.1296L14.5424 20.3919C14.1452 20.4229 13.7481 20.4451 13.2751 20.4496H8.77719H4.30604H2.39175C1.07093 20.4451 0 21.3101 0 22.3836V23.9983C0 25.0673 1.07093 25.9368 2.39175 25.9368H4.15879H8.77719H13.8017C14.8012 25.919 15.1582 25.8658 15.6847 25.6795C15.9212 25.5952 34.3011 18.9591 36.5322 18.1562L36.6036 18.1651L13.9266 30.7542H8.77719H4.06508H2.39175C1.07093 30.7542 0 31.6192 0 32.6882V34.3029C0 35.372 1.07093 36.2414 2.39175 36.2414H4.06508H8.77719H15.2385C16.0818 36.2414 16.8984 35.9841 17.5231 35.5272L36.6572 18.1651H36.6661L36.6572 18.1606L36.6973 18.1251L36.7509 18.1562L36.7062 18.1163L36.7509 18.0763L36.6973 18.1118ZM36.6215 18.1518C36.6081 18.1473 36.5991 18.1429 36.5813 18.1384C36.6081 18.1296 36.6348 18.1163 36.6572 18.1118L36.675 18.1207L36.6215 18.1518Z" fill="#00a9cf" />
</svg>
