<svg xmlns="http://www.w3.org/2000/svg" viewBox="0 0 536.83 179.17"><defs><style>.cls-1{fill:#414a59;}.cls-2{fill:#ffc200;}.cls-3{fill:#00ca92;}</style></defs><g id="Layer_2" data-name="Layer 2"><g id="Layer_1-2" data-name="Layer 1"><path class="cls-1" d="M467.79,115h2.58v2.42h-2.58Z"/><path class="cls-1" d="M487.15,113.16a7.75,7.75,0,0,1-.95,2.15,5.17,5.17,0,0,1-1.36,1.43,5.4,5.4,0,0,1-1.72.79,8.25,8.25,0,0,1-2,.24,7.61,7.61,0,0,1-2.11-.27,6.28,6.28,0,0,1-1.66-.73,5,5,0,0,1-1.23-1.11,6.06,6.06,0,0,1-.85-1.36,8,8,0,0,1-.48-1.53,8.56,8.56,0,0,1-.15-1.59,8.29,8.29,0,0,1,.4-2.61,6.35,6.35,0,0,1,1.21-2.16,5.86,5.86,0,0,1,2-1.46,6.81,6.81,0,0,1,2.81-.54,8.39,8.39,0,0,1,2.15.27,6.47,6.47,0,0,1,1.83.82,4.86,4.86,0,0,1,2.13,3.15h-1.94a2.94,2.94,0,0,0-.51-1.14,3.35,3.35,0,0,0-.9-.86,4.33,4.33,0,0,0-1.23-.56,5.24,5.24,0,0,0-1.45-.19,4.66,4.66,0,0,0-2.05.41,4,4,0,0,0-1.43,1.12,4.8,4.8,0,0,0-.83,1.66,7.36,7.36,0,0,0-.27,2,7.88,7.88,0,0,0,.26,2,4.65,4.65,0,0,0,.8,1.64,3.88,3.88,0,0,0,1.42,1.09,5.18,5.18,0,0,0,2.1.39,4.59,4.59,0,0,0,2.71-.75,3.91,3.91,0,0,0,1.46-2.37Z"/><path class="cls-1" d="M490.17,111.11a7.82,7.82,0,0,1,.41-2.57,6,6,0,0,1,1.28-2.14A6,6,0,0,1,494,105a9.05,9.05,0,0,1,6.16,0,6.13,6.13,0,0,1,2.15,1.45,6,6,0,0,1,1.28,2.14,8.09,8.09,0,0,1,.41,2.57,8,8,0,0,1-.41,2.56,5.92,5.92,0,0,1-1.28,2.13,6.11,6.11,0,0,1-2.15,1.44,9.21,9.21,0,0,1-6.16,0,5.82,5.82,0,0,1-3.43-3.57A7.72,7.72,0,0,1,490.17,111.11Zm11.91,0a6.85,6.85,0,0,0-.12-1.28,5.44,5.44,0,0,0-.35-1.21,4.49,4.49,0,0,0-.63-1.08,3.92,3.92,0,0,0-1-.86,4.54,4.54,0,0,0-1.28-.58,6,6,0,0,0-1.66-.2,5.49,5.49,0,0,0-2.34.45,4.3,4.3,0,0,0-1.54,1.19,4.64,4.64,0,0,0-.85,1.67,7.25,7.25,0,0,0-.26,1.9,7.47,7.47,0,0,0,.11,1.26,6,6,0,0,0,.36,1.2,4.82,4.82,0,0,0,.64,1.07,3.87,3.87,0,0,0,.94.86,4.76,4.76,0,0,0,1.29.57,6.63,6.63,0,0,0,3.31,0,4.83,4.83,0,0,0,1.28-.57,3.92,3.92,0,0,0,1-.86,4.43,4.43,0,0,0,.63-1.07,5.35,5.35,0,0,0,.35-1.2A6.72,6.72,0,0,0,502.08,111.11Z"/><path class="cls-1" d="M508.25,115h2.57v2.42h-2.57Z"/><path class="cls-1" d="M516.59,101h1.78v3.87h3.54v1.38h-3.54v8.66a1.25,1.25,0,0,0,.2.74,1.34,1.34,0,0,0,.52.42,2.24,2.24,0,0,0,.72.18,7.69,7.69,0,0,0,.83,0c.23,0,.45,0,.67,0l.6-.08v1.56c-.3,0-.61.06-.94.08s-.64,0-1,0a7.83,7.83,0,0,1-1.29-.11,3.14,3.14,0,0,1-1.09-.39,2.15,2.15,0,0,1-.76-.82,2.86,2.86,0,0,1-.28-1.36V106.2h-2.54v-1.38h2.54Z"/><path class="cls-1" d="M524.92,100.24h1.79v6.44a5.08,5.08,0,0,1,1.19-1.21,5.49,5.49,0,0,1,1.33-.7,5.59,5.59,0,0,1,1.36-.32,9.7,9.7,0,0,1,1.29-.08,7.25,7.25,0,0,1,2,.25,4.37,4.37,0,0,1,1.57.78,3.67,3.67,0,0,1,1,1.33,4.54,4.54,0,0,1,.36,1.88v8.79H535v-8.56a4.66,4.66,0,0,0-.17-1.3,2.21,2.21,0,0,0-.6-1,2.73,2.73,0,0,0-1.11-.6,6.34,6.34,0,0,0-1.77-.2,4.25,4.25,0,0,0-1.18.16,4.39,4.39,0,0,0-1.1.45,5,5,0,0,0-1,.71,4.61,4.61,0,0,0-1.24,2,4.14,4.14,0,0,0-.18,1.22v7.07h-1.79Z"/><path class="cls-2" d="M72.77,88.48a54.37,54.37,0,0,1-1.71-21.56,49.94,49.94,0,0,1,7.27-20.36A58.55,58.55,0,0,1,94.37,30a65.22,65.22,0,0,1,7.53-4.58H72.83L53,71.75,33,25.39H0L37.28,104.1l-4.2,9.06a14,14,0,0,1-3.72,4.33,11.17,11.17,0,0,1-3.91,2,18.41,18.41,0,0,1-4.49.7q-2.38.09-5,.09l-1.4,0c-.55,0-1.13-.06-1.73-.12l-1.7-.14a12.34,12.34,0,0,1-1.24-.18v22.83c2.68.24,5.28.41,7.8.53s4.73.17,6.63.17a70,70,0,0,0,11.55-.87,29.67,29.67,0,0,0,9.47-3.25,27.82,27.82,0,0,0,7.84-6.6,50.7,50.7,0,0,0,6.69-11L74.36,93.32Q73.47,91,72.77,88.48Z"/><path class="cls-3" d="M114.79,85.75A16.86,16.86,0,0,0,119.93,91a21.65,21.65,0,0,0,6.56,2.82,26.14,26.14,0,0,0,7.21.7,31,31,0,0,0,7.18-1.12c1.9-.54,3.78-1.15,5.62-1.84a26.13,26.13,0,0,0,5.24-2.67A19.7,19.7,0,0,0,159.52,79L189,70.64a52.51,52.51,0,0,1-5.14,17.5,51,51,0,0,1-9.45,13,52.5,52.5,0,0,1-12.34,9.07,70.14,70.14,0,0,1-13.81,5.56,74.23,74.23,0,0,1-23.8,3.11,49.23,49.23,0,0,1-19.13-4.62,39.79,39.79,0,0,1-14-11.25A47.72,47.72,0,0,1,83,86.27a46,46,0,0,1-1.46-18.34,41.53,41.53,0,0,1,6.1-17.06,50.13,50.13,0,0,1,13.83-14.26,69.81,69.81,0,0,1,21.7-9.9,64.42,64.42,0,0,1,12.22-2.19A51.06,51.06,0,0,1,148,25a47.42,47.42,0,0,1,12.22,3.76,42.11,42.11,0,0,1,11.14,7.57,54,54,0,0,1,9.42,12,70.41,70.41,0,0,1,7,16.88ZM152.21,56a19.38,19.38,0,0,0-10.44-7.16,24.94,24.94,0,0,0-13.33.41,26.56,26.56,0,0,0-5.85,2.42,24.33,24.33,0,0,0-5.16,3.83,22.23,22.23,0,0,0-4,5.32A23.55,23.55,0,0,0,111,67.6Z"/><path class="cls-1" d="M198.49,0h24.83V118H198.49Z"/><path class="cls-1" d="M233.92,0h16.23V118H233.92Z"/><path class="cls-1" d="M259.73,71.26a55.25,55.25,0,0,1,2.85-17.81A40.18,40.18,0,0,1,286,28.56q8.88-3.75,21-3.75t21,3.75a40.18,40.18,0,0,1,23.38,24.89,55.52,55.52,0,0,1,2.84,17.81A54.93,54.93,0,0,1,351.27,89a39.9,39.9,0,0,1-23.38,24.71,61.56,61.56,0,0,1-41.93,0A39.9,39.9,0,0,1,262.58,89,54.66,54.66,0,0,1,259.73,71.26Zm81.19,0a50.76,50.76,0,0,0-.77-8.87,40.24,40.24,0,0,0-2.42-8.4,32.08,32.08,0,0,0-4.3-7.46,26.85,26.85,0,0,0-6.44-6,31.71,31.71,0,0,0-8.76-4,40.83,40.83,0,0,0-11.31-1.45q-9.41,0-15.91,3.15a29.5,29.5,0,0,0-10.53,8.25,32,32,0,0,0-5.79,11.58,49.63,49.63,0,0,0-1,21.9,38.65,38.65,0,0,0,2.44,8.31,33,33,0,0,0,4.34,7.4,27.12,27.12,0,0,0,6.44,5.94,31.71,31.71,0,0,0,8.76,4,44.56,44.56,0,0,0,22.55,0,31.71,31.71,0,0,0,8.76-4,27.31,27.31,0,0,0,6.44-5.94,32.11,32.11,0,0,0,4.3-7.4A39.7,39.7,0,0,0,340.15,80,49.58,49.58,0,0,0,340.92,71.26Z"/><path class="cls-1" d="M479.34,24.81h13l-33.2,92.59h-15l-23.1-80-23.29,80H383.23l-32.7-92.59h13.69l26.38,80,23.1-80h14.92l23.1,79.41Z"/><circle class="cls-3" cx="191.95" cy="161.27" r="17.9"/><circle class="cls-2" cx="245.64" cy="161.27" r="17.9"/><circle class="cls-1" cx="299.34" cy="161.27" r="17.9"/></g></g></svg>