<svg xmlns="http://www.w3.org/2000/svg" width="1494" height="1494" viewBox="0 0 1494 1494" fill="none"><script xmlns=""/>
<path d="M731.656 1468.13C1135.74 1468.13 1463.31 1140.56 1463.31 736.475C1463.31 332.395 1135.74 4.82031 731.656 4.82031C327.574 4.82031 0 332.395 0 736.475C0 1140.56 327.574 1468.13 731.656 1468.13Z" fill="black"/>
<path d="M731.408 340.957C777.72 340.957 815.26 303.416 815.26 257.108C815.26 210.799 777.72 173.258 731.408 173.258C685.101 173.258 647.561 210.799 647.561 257.108C647.561 303.416 685.101 340.957 731.408 340.957Z" fill="white"/>
<path d="M1079.35 1166.42C997.387 1055.03 933.784 965.199 888.537 896.923C847.864 836.69 814.554 771.807 789.32 703.648V427.633H782.926C766.521 435.643 748.503 439.803 730.246 439.803C711.988 439.803 693.97 435.643 677.561 427.633H675.961V724.798C675.961 874.217 655.104 981.675 613.382 1047.16C594.933 1078.2 568.482 1103.7 536.793 1121.01C505.104 1138.31 469.351 1146.78 433.267 1145.52C397.609 1146.48 362.042 1141.5 328.023 1130.77V1233.06C342.771 1238.99 358.1 1243.36 373.76 1246.09C395.91 1250.45 418.436 1252.59 441.011 1252.48C537.65 1252.48 613.464 1221.62 668.462 1159.91C723.461 1098.19 759.568 1009.99 776.778 895.322C825.958 988.353 899.728 1103.1 998.085 1239.58H1133.32L1079.35 1166.42Z" fill="white"/>
</svg>