<svg width="512" height="512" viewBox="0 0 30 30" fill="#4BA3FB" xmlns="http://www.w3.org/2000/svg">
  <g clip-path="url(#clip0_bitcastle_blue)">
    <path d="M26.5983 16.1702C26.5983 14.2566 26.1357 12.4512 25.3163 10.8594H23.5817V14.1426H19.5392V10.8594H17.1411V14.1426H13.0986V10.8594H10.7005V14.1426H6.65861V10.8594H4.63654C3.81713 12.4515 3.35449 14.2566 3.35449 16.1702C3.35449 21.2742 6.64456 25.6091 11.2196 27.1712V20.5388L14.9766 18.2429L18.7335 20.5388V27.1712C23.3086 25.6091 26.5986 21.2742 26.5986 16.1702H26.5983Z" fill="#4BA3FB"/>
    <path d="M24.7912 9.8929C24.7912 9.8929 23.1808 3.90413 13.5684 2.79688V8.26583C13.5684 8.26583 20.8153 5.36358 24.7912 9.8929Z" fill="#4BA3FB"/>
  </g>
  <defs>
    <clipPath id="clip0_bitcastle_blue">
      <rect width="23.2438" height="24.3726" fill="white" transform="translate(3.35449 2.79688)"/>
    </clipPath>
  </defs>
</svg>
